<?xml version="1.0" encoding="UTF-8" standalone="no"?>
<svg
   xmlns:dc="http://purl.org/dc/elements/1.1/"
   xmlns:cc="http://creativecommons.org/ns#"
   xmlns:rdf="http://www.w3.org/1999/02/22-rdf-syntax-ns#"
   xmlns:svg="http://www.w3.org/2000/svg"
   xmlns="http://www.w3.org/2000/svg"
   xmlns:sodipodi="http://sodipodi.sourceforge.net/DTD/sodipodi-0.dtd"
   xmlns:inkscape="http://www.inkscape.org/namespaces/inkscape"
   id="Camada_1"
   data-name="Camada 1"
   viewBox="0 0 399.99999 399.99999"
   version="1.1"
   sodipodi:docname="favicon.svg"
   width="400"
   height="400"
   inkscape:version="1.0.1 (3bc2e813f5, 2020-09-07)">
  <metadata
     id="metadata30">
    <rdf:RDF>
      <cc:Work
         rdf:about="">
        <dc:format>image/svg+xml</dc:format>
        <dc:type
           rdf:resource="http://purl.org/dc/dcmitype/StillImage" />
        <dc:title></dc:title>
      </cc:Work>
    </rdf:RDF>
  </metadata>
  <sodipodi:namedview
     pagecolor="#ffffff"
     bordercolor="#666666"
     borderopacity="1"
     objecttolerance="10"
     gridtolerance="10"
     guidetolerance="10"
     inkscape:pageopacity="0"
     inkscape:pageshadow="2"
     inkscape:window-width="1366"
     inkscape:window-height="705"
     id="namedview28"
     showgrid="false"
     inkscape:zoom="0.69244234"
     inkscape:cx="242.7628"
     inkscape:cy="192.42126"
     inkscape:window-x="-8"
     inkscape:window-y="-8"
     inkscape:window-maximized="1"
     inkscape:current-layer="Camada_1" />
  <defs
     id="defs23">
    <style
       id="style21">.cls-1{fill:#ff0949;}</style>
  </defs>
  <path
     class="cls-1"
     d="m 270.285,188.87 a 60.74,60.74 0 0 0 -20.3,-16.26 q -12.58,-6.48 -30.55,-6.48 h -72.41 c -7.48,0 -10,-5.2 -10.06,-9.25 -0.06,-4.05 3.15,-9.56 10.42,-9.58 h 212.64 a 21.94,21.94 0 0 0 21.94,-21.94 v -0.54 a 21.94,21.94 0 0 0 -21.94,-21.94 h -213 a 64.51,64.51 0 0 0 -18.51,3 54.89,54.89 0 0 0 -18.33,9.61 52.35,52.35 0 0 0 -14,17.34 q -5.59,10.68 -5.59,26.3 a 57.65,57.65 0 0 0 3,17.43 51.45,51.45 0 0 0 9.7,17.43 53.73,53.73 0 0 0 17.52,13.48 q 10.78,5.39 26.24,5.39 h 72.41 q 18,0 18.87,18.69 0,9.17 -4.85,14 -4.85,4.83 -14.38,4.85 H 41.395 a 23.36,23.36 0 1 0 0,46.72 h 178 a 70.38,70.38 0 0 0 14.11,-1.52 72,72 0 0 0 14.73,-4.76 68.27,68.27 0 0 0 13.93,-8.36 55.3,55.3 0 0 0 11.72,-12.35 63.27,63.27 0 0 0 8.08,-16.89 71.26,71.26 0 0 0 3.06,-21.65 73.91,73.91 0 0 0 -3.5,-21.39 64.69,64.69 0 0 0 -11.24,-21.29"
     id="path25" />
</svg>
