<?xml version="1.0" encoding="utf-8"?>
<!-- Generator: Adobe Illustrator 24.3.0, SVG Export Plug-In . SVG Version: 6.00 Build 0)  -->
<svg version="1.1" id="Camada_1" xmlns="http://www.w3.org/2000/svg" xmlns:xlink="http://www.w3.org/1999/xlink" x="0px" y="0px"
	 viewBox="0 0 1223 68" style="enable-background:new 0 0 1223 68;" xml:space="preserve">
<style type="text/css">
	.st0{fill:#FF0A4A;}
	.st1{fill:none;}
	.st2{fill:none;stroke:#FF0A4A;stroke-width:3;}
	.st3{fill:#FFFFFF;}
	.st4{font-family:'Prompt-Medium';}
	.st5{font-size:43px;}
</style>
<circle id="Elipse_9" class="st0" cx="34" cy="34" r="34"/>
<circle id="Elipse_8" class="st0" cx="419" cy="34" r="34"/>
<circle id="Elipse_7" class="st0" cx="804" cy="34" r="34"/>
<circle id="Elipse_6" class="st0" cx="1189" cy="34" r="34"/>
<g id="Retângulo_36" transform="translate(37 24)">
	<rect x="0" class="st1" width="1149" height="20"/>
	<rect x="1.5" y="1.5" class="st2" width="1146" height="17"/>
</g>
<g id="Retângulo_37" transform="translate(45 27)">
	<rect x="0" class="st0" width="382" height="15"/>
	<rect x="1.5" y="1.5" class="st2" width="379" height="12"/>
</g>
<g id="Retângulo_38" transform="translate(432 27)">
	<rect x="0" class="st0" width="382" height="15"/>
	<rect x="1.5" y="1.5" class="st2" width="379" height="12"/>
</g>
<text transform="matrix(1 0 0 1 23.959 49)" class="st3 st4 st5">1</text>
<text transform="matrix(1 0 0 1 406.422 49)" class="st3 st4 st5">2</text>
<text transform="matrix(1 0 0 1 791.53 47)" class="st3 st4 st5">3</text>
<text transform="matrix(1 0 0 1 1175.906 47)" class="st3 st4 st5">4</text>
</svg>
